<svg width="33" height="22" viewBox="0 0 33 22" fill="none" xmlns="http://www.w3.org/2000/svg">
<path d="M9.53313 6.36641C9.53313 6.67365 9.41108 6.9683 9.19383 7.18555C8.97659 7.4028 8.68193 7.52485 8.37469 7.52485H1.42406C1.11683 7.52485 0.822173 7.4028 0.604924 7.18555C0.387674 6.9683 0.265625 6.67365 0.265625 6.36641C0.265625 6.05917 0.387674 5.76452 0.604924 5.54727C0.822173 5.33002 1.11683 5.20797 1.42406 5.20797H8.37469C8.68193 5.20797 8.97659 5.33002 9.19383 5.54727C9.41108 5.76452 9.53313 6.05917 9.53313 6.36641ZM19.9591 9.84173H13.0084C12.7012 9.84173 12.4066 9.96378 12.1893 10.181C11.9721 10.3983 11.85 10.6929 11.85 11.0002C11.85 11.3074 11.9721 11.6021 12.1893 11.8193C12.4066 12.0366 12.7012 12.1586 13.0084 12.1586H19.9591C20.2663 12.1586 20.561 12.0366 20.7782 11.8193C20.9955 11.6021 21.1175 11.3074 21.1175 11.0002C21.1175 10.6929 20.9955 10.3983 20.7782 10.181C20.561 9.96378 20.2663 9.84173 19.9591 9.84173ZM24.5928 2.8911H31.5435C31.8507 2.8911 32.1454 2.76905 32.3626 2.5518C32.5799 2.33455 32.7019 2.03989 32.7019 1.73266C32.7019 1.42542 32.5799 1.13077 32.3626 0.913518C32.1454 0.696268 31.8507 0.574219 31.5435 0.574219H24.5928C24.2856 0.574219 23.9909 0.696268 23.7737 0.913518C23.5564 1.13077 23.4344 1.42542 23.4344 1.73266C23.4344 2.03989 23.5564 2.33455 23.7737 2.5518C23.9909 2.76905 24.2856 2.8911 24.5928 2.8911ZM8.37469 9.84173H1.42406C1.11683 9.84173 0.822173 9.96378 0.604924 10.181C0.387674 10.3983 0.265625 10.6929 0.265625 11.0002V20.2677C0.265625 20.5749 0.387674 20.8696 0.604924 21.0868C0.822173 21.3041 1.11683 21.4261 1.42406 21.4261H8.37469C8.68193 21.4261 8.97659 21.3041 9.19383 21.0868C9.41108 20.8696 9.53313 20.5749 9.53313 20.2677V11.0002C9.53313 10.6929 9.41108 10.3983 9.19383 10.181C8.97659 9.96378 8.68193 9.84173 8.37469 9.84173ZM31.5435 5.20797H24.5928C24.2856 5.20797 23.9909 5.33002 23.7737 5.54727C23.5564 5.76452 23.4344 6.05917 23.4344 6.36641V20.2677C23.4344 20.5749 23.5564 20.8696 23.7737 21.0868C23.9909 21.3041 24.2856 21.4261 24.5928 21.4261H31.5435C31.8507 21.4261 32.1454 21.3041 32.3626 21.0868C32.5799 20.8696 32.7019 20.5749 32.7019 20.2677V6.36641C32.7019 6.05917 32.5799 5.76452 32.3626 5.54727C32.1454 5.33002 31.8507 5.20797 31.5435 5.20797ZM19.9591 14.4755H13.0084C12.7012 14.4755 12.4066 14.5975 12.1893 14.8148C11.9721 15.032 11.85 15.3267 11.85 15.6339V20.2677C11.85 20.5749 11.9721 20.8696 12.1893 21.0868C12.4066 21.3041 12.7012 21.4261 13.0084 21.4261H19.9591C20.2663 21.4261 20.561 21.3041 20.7782 21.0868C20.9955 20.8696 21.1175 20.5749 21.1175 20.2677V15.6339C21.1175 15.3267 20.9955 15.032 20.7782 14.8148C20.561 14.5975 20.2663 14.4755 19.9591 14.4755Z" fill="#0081C6"/>
</svg>
