<svg width="36" height="30" viewBox="0 0 36 30" fill="none" xmlns="http://www.w3.org/2000/svg">
<path d="M33.9554 27.2413H31.6235V13.7672C31.6235 13.4445 31.5566 13.1252 31.4269 12.8297C31.2972 12.5342 31.1075 12.2688 30.87 12.0503L19.2104 1.04952C19.2047 1.04455 19.1993 1.0392 19.1943 1.03349C18.7651 0.643091 18.2057 0.426758 17.6254 0.426758C17.0451 0.426758 16.4857 0.643091 16.0565 1.03349L16.0404 1.04952L4.39395 12.0503C4.15639 12.2688 3.96675 12.5342 3.83705 12.8297C3.70735 13.1252 3.6404 13.4445 3.64045 13.7672V27.2413H1.30854C0.999305 27.2413 0.702739 27.3642 0.484079 27.5828C0.26542 27.8015 0.142578 28.0981 0.142578 28.4073C0.142578 28.7165 0.26542 29.0131 0.484079 29.2317C0.702739 29.4504 0.999305 29.5732 1.30854 29.5732H33.9554C34.2646 29.5732 34.5612 29.4504 34.7798 29.2317C34.9985 29.0131 35.1213 28.7165 35.1213 28.4073C35.1213 28.0981 34.9985 27.8015 34.7798 27.5828C34.5612 27.3642 34.2646 27.2413 33.9554 27.2413ZM21.1298 27.2413H14.1341V20.2456C14.1341 19.9363 14.2569 19.6398 14.4756 19.4211C14.6942 19.2025 14.9908 19.0796 15.3 19.0796H19.9639C20.2731 19.0796 20.5697 19.2025 20.7883 19.4211C21.007 19.6398 21.1298 19.9363 21.1298 20.2456V27.2413Z" fill="#0081C6"/>
</svg>
