<svg width="30" height="30" viewBox="0 0 30 30" fill="none" xmlns="http://www.w3.org/2000/svg">
<path d="M13.8495 0.422611C13.3992 0.507458 12.753 0.899055 12.1526 1.44729C11.513 2.04122 11.2388 2.20438 10.9321 2.20438C10.8342 2.20438 10.4426 2.13259 10.0641 2.04122C8.58904 1.6953 7.5252 1.93679 6.63758 2.82441C6.15461 3.30738 5.95228 3.67287 5.69774 4.54744C5.36489 5.65044 5.27351 5.74181 4.0204 6.12036C2.98267 6.42711 2.29085 6.96882 1.87314 7.79117C1.47502 8.57437 1.4228 9.30535 1.67734 10.441C1.76872 10.8391 1.84051 11.2307 1.84051 11.3221C1.84051 11.6092 1.66429 11.8964 1.09647 12.5099C0.274118 13.3975 0 14.0176 0 14.9966C0 15.9756 0.267592 16.5825 1.08995 17.4767C1.66429 18.1032 1.84051 18.3904 1.84051 18.6711C1.84051 18.7624 1.76872 19.154 1.67734 19.5522C1.41628 20.7008 1.46849 21.3861 1.87967 22.2215C2.1081 22.6719 2.73466 23.318 3.17847 23.5595C3.36121 23.6509 3.81155 23.8206 4.18357 23.9315C5.28657 24.2644 5.37794 24.3558 5.75648 25.6089C6.06324 26.6466 6.60495 27.3384 7.4273 27.7561C8.21049 28.1542 8.94148 28.2065 10.0771 27.9519C10.4752 27.8605 10.8668 27.7888 10.9582 27.7888C11.2454 27.7888 11.5325 27.965 12.0938 28.4871C13.0206 29.3486 13.6145 29.6162 14.6262 29.6162C15.6378 29.6162 16.2056 29.3682 17.1128 28.5393C17.7524 27.9519 18.0265 27.7888 18.3333 27.7888C18.4312 27.7888 18.8228 27.8605 19.2013 27.9519C19.9976 28.1412 20.5785 28.1542 21.1267 28.0107C22.3472 27.6974 23.1238 26.9142 23.5089 25.6089C23.8874 24.3558 23.9788 24.2644 25.0818 23.9315C25.9564 23.677 26.3219 23.4747 26.8049 22.9917C27.6925 22.1041 27.9274 21.0663 27.588 19.5522C27.4967 19.154 27.4249 18.7624 27.4249 18.6711C27.4249 18.3839 27.6011 18.0967 28.1689 17.4832C28.9913 16.5956 29.2654 15.9756 29.2654 14.9966C29.2654 14.0176 28.9913 13.4041 28.1754 12.5099C27.6011 11.8899 27.4249 11.6092 27.4249 11.3221C27.4249 11.2307 27.4967 10.8391 27.588 10.441C27.8426 9.30535 27.7904 8.57437 27.3922 7.79117C26.9745 6.96882 26.2827 6.42711 25.245 6.12036C23.9919 5.74181 23.9005 5.65044 23.5676 4.54744C23.3131 3.67287 23.1108 3.30738 22.6213 2.81788C21.7467 1.93679 20.7025 1.70183 19.1883 2.04122C18.7902 2.13259 18.3986 2.20438 18.3072 2.20438C18.02 2.20438 17.7328 2.02816 17.1716 1.50603C16.2317 0.624937 15.6443 0.370399 14.6131 0.383451C14.2803 0.389978 13.9409 0.409559 13.8495 0.422611ZM21.205 10.5715C21.4204 10.702 21.6814 11.1524 21.6814 11.3939C21.6814 11.4787 21.6423 11.6354 21.5901 11.7594C21.4922 11.9943 14.0061 19.2323 13.595 19.4804C13.3339 19.6435 13.001 19.6696 12.7269 19.5456C12.4985 19.4477 7.79932 14.9574 7.67531 14.7225C7.54478 14.4679 7.55783 14.0241 7.71447 13.7761C7.85806 13.5346 8.06691 13.3845 8.37366 13.2996C8.83705 13.1626 8.93495 13.2344 11.0822 15.2903C12.1852 16.3541 13.112 17.2091 13.1381 17.2026C13.1642 17.1895 14.4891 15.9364 16.0816 14.4092C17.6676 12.8819 19.2274 11.3873 19.5407 11.0871C20.3043 10.3561 20.6633 10.2452 21.205 10.5715Z" fill="#0081C6"/>
</svg>
