<svg width="32" height="32" viewBox="0 0 32 32" fill="none" xmlns="http://www.w3.org/2000/svg">
<path d="M17.1148 0.940895C16.865 1.0301 16.532 1.17877 16.3714 1.27392C15.9492 1.51179 1.1774 16.2836 0.998999 16.6464C0.784915 17.0745 0.70166 17.4313 0.70166 17.9368C0.70166 18.4482 0.790862 18.7931 1.04657 19.2629C1.14767 19.4473 2.97333 21.3146 6.79117 25.1324C12.3098 30.651 12.393 30.7343 12.8569 30.9603C13.2791 31.1684 13.3921 31.1922 13.8619 31.216C14.4387 31.2338 14.7658 31.1684 15.2415 30.9365C15.4794 30.8235 17.0553 29.2773 23.0378 23.2949C31.1492 15.1716 30.7389 15.6176 31.0303 14.672C31.1492 14.2914 31.1492 14.1547 31.1373 8.46358L31.1195 2.64168L30.8994 2.19567C30.6259 1.64262 30.2334 1.25607 29.6744 0.994417L29.276 0.804119L23.4184 0.792227L17.5608 0.780333L17.1148 0.940895ZM24.358 6.03134C26.0825 6.65576 26.5821 8.85012 25.2916 10.1406C23.9595 11.4727 21.7117 10.9018 21.1467 9.08799C20.8018 7.96405 21.3548 6.70333 22.4491 6.13244C22.9248 5.88267 23.8228 5.8351 24.358 6.03134Z" fill="#0081C6"/>
</svg>
